<svg width="256" height="120" viewBox="0 0 256 120" fill="none" xmlns="http://www.w3.org/2000/svg">
<path d="M16 0H8V8H16V0Z" fill="black"/>
<path d="M24 0H16V8H24V0Z" fill="black"/>
<path d="M240 0H232V8H240V0Z" fill="black"/>
<path d="M248 0H240V8H248V0Z" fill="black"/>
<path d="M8 8H0V16H8V8Z" fill="black"/>
<path d="M16 8H8V16H16V8Z" fill="#FBF236"/>
<path d="M24 8H16V16H24V8Z" fill="#FBF236"/>
<path d="M32 8H24V16H32V8Z" fill="black"/>
<path d="M128 8H120V16H128V8Z" fill="black"/>
<path d="M136 8H128V16H136V8Z" fill="black"/>
<path d="M232 8H224V16H232V8Z" fill="black"/>
<path d="M240 8H232V16H240V8Z" fill="#FBF236"/>
<path d="M248 8H240V16H248V8Z" fill="#FBF236"/>
<path d="M256 8H248V16H256V8Z" fill="black"/>
<path d="M8 16H0V24H8V16Z" fill="black"/>
<path d="M16 16H8V24H16V16Z" fill="#FBF236"/>
<path d="M24 16H16V24H24V16Z" fill="#FBF236"/>
<path d="M32 16H24V24H32V16Z" fill="#FBF236"/>
<path d="M40 16H32V24H40V16Z" fill="black"/>
<path d="M120 16H112V24H120V16Z" fill="black"/>
<path d="M128 16H120V24H128V16Z" fill="#FBF236"/>
<path d="M136 16H128V24H136V16Z" fill="#FBF236"/>
<path d="M144 16H136V24H144V16Z" fill="black"/>
<path d="M224 16H216V24H224V16Z" fill="black"/>
<path d="M232 16H224V24H232V16Z" fill="#FBF236"/>
<path d="M240 16H232V24H240V16Z" fill="#FBF236"/>
<path d="M248 16H240V24H248V16Z" fill="#FBF236"/>
<path d="M256 16H248V24H256V16Z" fill="black"/>
<path d="M8 24H0V32H8V24Z" fill="black"/>
<path d="M16 24H8V32H16V24Z" fill="#FBF236"/>
<path d="M24 24H16V32H24V24Z" fill="#663931"/>
<path d="M32 24H24V32H32V24Z" fill="#FBF236"/>
<path d="M40 24H32V32H40V24Z" fill="black"/>
<path d="M48 24H40V32H48V24Z" fill="black"/>
<path d="M112 24H104V32H112V24Z" fill="black"/>
<path d="M120 24H112V32H120V24Z" fill="#FBF236"/>
<path d="M128 24H120V32H128V24Z" fill="black"/>
<path d="M136 24H128V32H136V24Z" fill="black"/>
<path d="M144 24H136V32H144V24Z" fill="#FBF236"/>
<path d="M152 24H144V32H152V24Z" fill="black"/>
<path d="M216 24H208V32H216V24Z" fill="black"/>
<path d="M224 24H216V32H224V24Z" fill="black"/>
<path d="M232 24H224V32H232V24Z" fill="#FBF236"/>
<path d="M240 24H232V32H240V24Z" fill="#663931"/>
<path d="M248 24H240V32H248V24Z" fill="#FBF236"/>
<path d="M256 24H248V32H256V24Z" fill="black"/>
<path d="M8 32H0V40H8V32Z" fill="black"/>
<path d="M16 32H8V40H16V32Z" fill="#FBF236"/>
<path d="M24 32H16V40H24V32Z" fill="#663931"/>
<path d="M32 32H24V40H32V32Z" fill="#FBF236"/>
<path d="M40 32H32V40H40V32Z" fill="#FBF236"/>
<path d="M48 32H40V40H48V32Z" fill="#FBF236"/>
<path d="M56 32H48V40H56V32Z" fill="black"/>
<path d="M104 32H96V40H104V32Z" fill="black"/>
<path d="M112 32H104V40H112V32Z" fill="#FBF236"/>
<path d="M120 32H112V40H120V32Z" fill="black"/>
<path d="M128 32H120V40H128V32Z" fill="#D10707"/>
<path d="M136 32H128V40H136V32Z" fill="#D10707"/>
<path d="M144 32H136V40H144V32Z" fill="black"/>
<path d="M152 32H144V40H152V32Z" fill="#FBF236"/>
<path d="M160 32H152V40H160V32Z" fill="black"/>
<path d="M208 32H200V40H208V32Z" fill="black"/>
<path d="M216 32H208V40H216V32Z" fill="#FBF236"/>
<path d="M224 32H216V40H224V32Z" fill="#FBF236"/>
<path d="M232 32H224V40H232V32Z" fill="#FBF236"/>
<path d="M240 32H232V40H240V32Z" fill="#663931"/>
<path d="M248 32H240V40H248V32Z" fill="#FBF236"/>
<path d="M256 32H248V40H256V32Z" fill="black"/>
<path d="M8 40H0V48H8V40Z" fill="black"/>
<path d="M16 40H8V48H16V40Z" fill="#FBF236"/>
<path d="M24 40H16V48H24V40Z" fill="#FBF236"/>
<path d="M32 40H24V48H32V40Z" fill="#FBF236"/>
<path d="M40 40H32V48H40V40Z" fill="#FBF236"/>
<path d="M48 40H40V48H48V40Z" fill="#FBF236"/>
<path d="M56 40H48V48H56V40Z" fill="#FBF236"/>
<path d="M64 40H56V48H64V40Z" fill="black"/>
<path d="M72 40H64V48H72V40Z" fill="black"/>
<path d="M80 40H72V48H80V40Z" fill="black"/>
<path d="M88 40H80V48H88V40Z" fill="black"/>
<path d="M96 40H88V48H96V40Z" fill="black"/>
<path d="M104 40H96V48H104V40Z" fill="#FBF236"/>
<path d="M112 40H104V48H112V40Z" fill="#FBF236"/>
<path d="M120 40H112V48H120V40Z" fill="black"/>
<path d="M128 40H120V48H128V40Z" fill="#D10707"/>
<path d="M136 40H128V48H136V40Z" fill="#D10707"/>
<path d="M144 40H136V48H144V40Z" fill="black"/>
<path d="M152 40H144V48H152V40Z" fill="#FBF236"/>
<path d="M160 40H152V48H160V40Z" fill="#FBF236"/>
<path d="M168 40H160V48H168V40Z" fill="black"/>
<path d="M176 40H168V48H176V40Z" fill="black"/>
<path d="M184 40H176V48H184V40Z" fill="black"/>
<path d="M192 40H184V48H192V40Z" fill="black"/>
<path d="M200 40H192V48H200V40Z" fill="black"/>
<path d="M208 40H200V48H208V40Z" fill="#FBF236"/>
<path d="M216 40H208V48H216V40Z" fill="#FBF236"/>
<path d="M224 40H216V48H224V40Z" fill="#FBF236"/>
<path d="M232 40H224V48H232V40Z" fill="#FBF236"/>
<path d="M240 40H232V48H240V40Z" fill="#FBF236"/>
<path d="M248 40H240V48H248V40Z" fill="#FBF236"/>
<path d="M256 40H248V48H256V40Z" fill="black"/>
<path d="M8 48H0V56H8V48Z" fill="black"/>
<path d="M16 48H8V56H16V48Z" fill="#FBF236"/>
<path d="M24 48H16V56H24V48Z" fill="#FBF236"/>
<path d="M32 48H24V56H32V48Z" fill="#FBF236"/>
<path d="M40 48H32V56H40V48Z" fill="#FBF236"/>
<path d="M48 48H40V56H48V48Z" fill="#FBF236"/>
<path d="M56 48H48V56H56V48Z" fill="#FBF236"/>
<path d="M64 48H56V56H64V48Z" fill="#FBF236"/>
<path d="M72 48H64V56H72V48Z" fill="#FBF236"/>
<path d="M80 48H72V56H80V48Z" fill="#FBF236"/>
<path d="M88 48H80V56H88V48Z" fill="#FBF236"/>
<path d="M96 48H88V56H96V48Z" fill="#FBF236"/>
<path d="M104 48H96V56H104V48Z" fill="#FBF236"/>
<path d="M112 48H104V56H112V48Z" fill="#FBF236"/>
<path d="M120 48H112V56H120V48Z" fill="#FBF236"/>
<path d="M128 48H120V56H128V48Z" fill="black"/>
<path d="M136 48H128V56H136V48Z" fill="black"/>
<path d="M144 48H136V56H144V48Z" fill="#FBF236"/>
<path d="M152 48H144V56H152V48Z" fill="#FBF236"/>
<path d="M160 48H152V56H160V48Z" fill="#FBF236"/>
<path d="M168 48H160V56H168V48Z" fill="#FBF236"/>
<path d="M176 48H168V56H176V48Z" fill="#FBF236"/>
<path d="M184 48H176V56H184V48Z" fill="#FBF236"/>
<path d="M192 48H184V56H192V48Z" fill="#FBF236"/>
<path d="M200 48H192V56H200V48Z" fill="#FBF236"/>
<path d="M208 48H200V56H208V48Z" fill="#FBF236"/>
<path d="M216 48H208V56H216V48Z" fill="#FBF236"/>
<path d="M224 48H216V56H224V48Z" fill="#FBF236"/>
<path d="M232 48H224V56H232V48Z" fill="#FBF236"/>
<path d="M240 48H232V56H240V48Z" fill="#FBF236"/>
<path d="M248 48H240V56H248V48Z" fill="#FBF236"/>
<path d="M256 48H248V56H256V48Z" fill="black"/>
<path d="M8 56H0V64H8V56Z" fill="black"/>
<path d="M16 56H8V64H16V56Z" fill="#FBF236"/>
<path d="M24 56H16V64H24V56Z" fill="#FBF236"/>
<path d="M32 56H24V64H32V56Z" fill="#FBF236"/>
<path d="M40 56H32V64H40V56Z" fill="black"/>
<path d="M48 56H40V64H48V56Z" fill="black"/>
<path d="M56 56H48V64H56V56Z" fill="#FBF236"/>
<path d="M64 56H56V64H64V56Z" fill="#FBF236"/>
<path d="M72 56H64V64H72V56Z" fill="#FBF236"/>
<path d="M80 56H72V64H80V56Z" fill="#FBF236"/>
<path d="M88 56H80V64H88V56Z" fill="#FBF236"/>
<path d="M96 56H88V64H96V56Z" fill="#FBF236"/>
<path d="M104 56H96V64H104V56Z" fill="#FBF236"/>
<path d="M112 56H104V64H112V56Z" fill="#FBF236"/>
<path d="M120 56H112V64H120V56Z" fill="#FBF236"/>
<path d="M128 56H120V64H128V56Z" fill="#FBF236"/>
<path d="M136 56H128V64H136V56Z" fill="#FBF236"/>
<path d="M144 56H136V64H144V56Z" fill="#FBF236"/>
<path d="M152 56H144V64H152V56Z" fill="#FBF236"/>
<path d="M160 56H152V64H160V56Z" fill="#FBF236"/>
<path d="M168 56H160V64H168V56Z" fill="#FBF236"/>
<path d="M176 56H168V64H176V56Z" fill="#FBF236"/>
<path d="M184 56H176V64H184V56Z" fill="#FBF236"/>
<path d="M192 56H184V64H192V56Z" fill="#FBF236"/>
<path d="M200 56H192V64H200V56Z" fill="#FBF236"/>
<path d="M208 56H200V64H208V56Z" fill="#FBF236"/>
<path d="M216 56H208V64H216V56Z" fill="black"/>
<path d="M224 56H216V64H224V56Z" fill="black"/>
<path d="M232 56H224V64H232V56Z" fill="#FBF236"/>
<path d="M240 56H232V64H240V56Z" fill="#FBF236"/>
<path d="M248 56H240V64H248V56Z" fill="#FBF236"/>
<path d="M256 56H248V64H256V56Z" fill="black"/>
<path d="M8 64H0V72H8V64Z" fill="black"/>
<path d="M16 64H8V72H16V64Z" fill="#FBF236"/>
<path d="M24 64H16V72H24V64Z" fill="#FBF236"/>
<path d="M32 64H24V72H32V64Z" fill="black"/>
<path d="M40 64H32V72H40V64Z" fill="#6ABE30"/>
<path d="M48 64H40V72H48V64Z" fill="#6ABE30"/>
<path d="M56 64H48V72H56V64Z" fill="black"/>
<path d="M64 64H56V72H64V64Z" fill="#FBF236"/>
<path d="M72 64H64V72H72V64Z" fill="#FBF236"/>
<path d="M80 64H72V72H80V64Z" fill="#FBF236"/>
<path d="M88 64H80V72H88V64Z" fill="black"/>
<path d="M96 64H88V72H96V64Z" fill="black"/>
<path d="M104 64H96V72H104V64Z" fill="#FBF236"/>
<path d="M112 64H104V72H112V64Z" fill="#FBF236"/>
<path d="M120 64H112V72H120V64Z" fill="#FBF236"/>
<path d="M128 64H120V72H128V64Z" fill="black"/>
<path d="M136 64H128V72H136V64Z" fill="black"/>
<path d="M144 64H136V72H144V64Z" fill="#FBF236"/>
<path d="M152 64H144V72H152V64Z" fill="#FBF236"/>
<path d="M160 64H152V72H160V64Z" fill="#FBF236"/>
<path d="M168 64H160V72H168V64Z" fill="black"/>
<path d="M176 64H168V72H176V64Z" fill="black"/>
<path d="M184 64H176V72H184V64Z" fill="#FBF236"/>
<path d="M192 64H184V72H192V64Z" fill="#FBF236"/>
<path d="M200 64H192V72H200V64Z" fill="#FBF236"/>
<path d="M208 64H200V72H208V64Z" fill="black"/>
<path d="M216 64H208V72H216V64Z" fill="#6ABE30"/>
<path d="M224 64H216V72H224V64Z" fill="#6ABE30"/>
<path d="M232 64H224V72H232V64Z" fill="black"/>
<path d="M240 64H232V72H240V64Z" fill="#FBF236"/>
<path d="M248 64H240V72H248V64Z" fill="#FBF236"/>
<path d="M256 64H248V72H256V64Z" fill="black"/>
<path d="M8 72H0V80H8V72Z" fill="black"/>
<path d="M16 72H8V80H16V72Z" fill="#FBF236"/>
<path d="M24 72H16V80H24V72Z" fill="#FBF236"/>
<path d="M32 72H24V80H32V72Z" fill="black"/>
<path d="M40 72H32V80H40V72Z" fill="#6ABE30"/>
<path d="M48 72H40V80H48V72Z" fill="#6ABE30"/>
<path d="M56 72H48V80H56V72Z" fill="black"/>
<path d="M64 72H56V80H64V72Z" fill="#FBF236"/>
<path d="M72 72H64V80H72V72Z" fill="#FBF236"/>
<path d="M80 72H72V80H80V72Z" fill="black"/>
<path d="M88 72H80V80H88V72Z" fill="white"/>
<path d="M96 72H88V80H96V72Z" fill="white"/>
<path d="M104 72H96V80H104V72Z" fill="black"/>
<path d="M112 72H104V80H112V72Z" fill="#FBF236"/>
<path d="M120 72H112V80H120V72Z" fill="black"/>
<path d="M128 72H120V80H128V72Z" fill="#5FCDE4"/>
<path d="M136 72H128V80H136V72Z" fill="#5FCDE4"/>
<path d="M144 72H136V80H144V72Z" fill="black"/>
<path d="M152 72H144V80H152V72Z" fill="#FBF236"/>
<path d="M160 72H152V80H160V72Z" fill="black"/>
<path d="M168 72H160V80H168V72Z" fill="white"/>
<path d="M176 72H168V80H176V72Z" fill="white"/>
<path d="M184 72H176V80H184V72Z" fill="black"/>
<path d="M192 72H184V80H192V72Z" fill="#FBF236"/>
<path d="M200 72H192V80H200V72Z" fill="#FBF236"/>
<path d="M208 72H200V80H208V72Z" fill="black"/>
<path d="M216 72H208V80H216V72Z" fill="#6ABE30"/>
<path d="M224 72H216V80H224V72Z" fill="#6ABE30"/>
<path d="M232 72H224V80H232V72Z" fill="black"/>
<path d="M240 72H232V80H240V72Z" fill="#FBF236"/>
<path d="M248 72H240V80H248V72Z" fill="#FBF236"/>
<path d="M256 72H248V80H256V72Z" fill="black"/>
<path d="M8 80H0V88H8V80Z" fill="black"/>
<path d="M16 80H8V88H16V80Z" fill="#FBF236"/>
<path d="M24 80H16V88H24V80Z" fill="#FBF236"/>
<path d="M32 80H24V88H32V80Z" fill="#FBF236"/>
<path d="M40 80H32V88H40V80Z" fill="black"/>
<path d="M48 80H40V88H48V80Z" fill="black"/>
<path d="M56 80H48V88H56V80Z" fill="#FBF236"/>
<path d="M64 80H56V88H64V80Z" fill="#FBF236"/>
<path d="M72 80H64V88H72V80Z" fill="#FBF236"/>
<path d="M80 80H72V88H80V80Z" fill="black"/>
<path d="M88 80H80V88H88V80Z" fill="white"/>
<path d="M96 80H88V88H96V80Z" fill="white"/>
<path d="M104 80H96V88H104V80Z" fill="black"/>
<path d="M112 80H104V88H112V80Z" fill="#FBF236"/>
<path d="M120 80H112V88H120V80Z" fill="black"/>
<path d="M128 80H120V88H128V80Z" fill="#5FCDE4"/>
<path d="M136 80H128V88H136V80Z" fill="#5FCDE4"/>
<path d="M144 80H136V88H144V80Z" fill="black"/>
<path d="M152 80H144V88H152V80Z" fill="#FBF236"/>
<path d="M160 80H152V88H160V80Z" fill="black"/>
<path d="M168 80H160V88H168V80Z" fill="white"/>
<path d="M176 80H168V88H176V80Z" fill="white"/>
<path d="M184 80H176V88H184V80Z" fill="black"/>
<path d="M192 80H184V88H192V80Z" fill="#FBF236"/>
<path d="M200 80H192V88H200V80Z" fill="#FBF236"/>
<path d="M208 80H200V88H208V80Z" fill="#FBF236"/>
<path d="M216 80H208V88H216V80Z" fill="black"/>
<path d="M224 80H216V88H224V80Z" fill="black"/>
<path d="M232 80H224V88H232V80Z" fill="#FBF236"/>
<path d="M240 80H232V88H240V80Z" fill="#FBF236"/>
<path d="M248 80H240V88H248V80Z" fill="#FBF236"/>
<path d="M256 80H248V88H256V80Z" fill="black"/>
<path d="M8 88H0V96H8V88Z" fill="black"/>
<path d="M16 88H8V96H16V88Z" fill="#FBF236"/>
<path d="M24 88H16V96H24V88Z" fill="#FBF236"/>
<path d="M32 88H24V96H32V88Z" fill="#FBF236"/>
<path d="M40 88H32V96H40V88Z" fill="#FBF236"/>
<path d="M48 88H40V96H48V88Z" fill="#FBF236"/>
<path d="M56 88H48V96H56V88Z" fill="#FBF236"/>
<path d="M64 88H56V96H64V88Z" fill="#FBF236"/>
<path d="M72 88H64V96H72V88Z" fill="#FBF236"/>
<path d="M80 88H72V96H80V88Z" fill="#FBF236"/>
<path d="M88 88H80V96H88V88Z" fill="black"/>
<path d="M96 88H88V96H96V88Z" fill="black"/>
<path d="M104 88H96V96H104V88Z" fill="#FBF236"/>
<path d="M112 88H104V96H112V88Z" fill="#FBF236"/>
<path d="M120 88H112V96H120V88Z" fill="#FBF236"/>
<path d="M128 88H120V96H128V88Z" fill="black"/>
<path d="M136 88H128V96H136V88Z" fill="black"/>
<path d="M144 88H136V96H144V88Z" fill="#FBF236"/>
<path d="M152 88H144V96H152V88Z" fill="#FBF236"/>
<path d="M160 88H152V96H160V88Z" fill="#FBF236"/>
<path d="M168 88H160V96H168V88Z" fill="black"/>
<path d="M176 88H168V96H176V88Z" fill="black"/>
<path d="M184 88H176V96H184V88Z" fill="#FBF236"/>
<path d="M192 88H184V96H192V88Z" fill="#FBF236"/>
<path d="M200 88H192V96H200V88Z" fill="#FBF236"/>
<path d="M208 88H200V96H208V88Z" fill="#FBF236"/>
<path d="M216 88H208V96H216V88Z" fill="#FBF236"/>
<path d="M224 88H216V96H224V88Z" fill="#FBF236"/>
<path d="M232 88H224V96H232V88Z" fill="#FBF236"/>
<path d="M240 88H232V96H240V88Z" fill="#FBF236"/>
<path d="M248 88H240V96H248V88Z" fill="#FBF236"/>
<path d="M256 88H248V96H256V88Z" fill="black"/>
<path d="M8 96H0V104H8V96Z" fill="black"/>
<path d="M16 96H8V104H16V96Z" fill="#FBF236"/>
<path d="M24 96H16V104H24V96Z" fill="#FBF236"/>
<path d="M32 96H24V104H32V96Z" fill="#FBF236"/>
<path d="M40 96H32V104H40V96Z" fill="#FBF236"/>
<path d="M48 96H40V104H48V96Z" fill="#FBF236"/>
<path d="M56 96H48V104H56V96Z" fill="#FBF236"/>
<path d="M64 96H56V104H64V96Z" fill="#FBF236"/>
<path d="M72 96H64V104H72V96Z" fill="#FBF236"/>
<path d="M80 96H72V104H80V96Z" fill="#FBF236"/>
<path d="M88 96H80V104H88V96Z" fill="#FBF236"/>
<path d="M96 96H88V104H96V96Z" fill="#FBF236"/>
<path d="M104 96H96V104H104V96Z" fill="#FBF236"/>
<path d="M112 96H104V104H112V96Z" fill="#FBF236"/>
<path d="M120 96H112V104H120V96Z" fill="#FBF236"/>
<path d="M128 96H120V104H128V96Z" fill="#FBF236"/>
<path d="M136 96H128V104H136V96Z" fill="#FBF236"/>
<path d="M144 96H136V104H144V96Z" fill="#FBF236"/>
<path d="M152 96H144V104H152V96Z" fill="#FBF236"/>
<path d="M160 96H152V104H160V96Z" fill="#FBF236"/>
<path d="M168 96H160V104H168V96Z" fill="#FBF236"/>
<path d="M176 96H168V104H176V96Z" fill="#FBF236"/>
<path d="M184 96H176V104H184V96Z" fill="#FBF236"/>
<path d="M192 96H184V104H192V96Z" fill="#FBF236"/>
<path d="M200 96H192V104H200V96Z" fill="#FBF236"/>
<path d="M208 96H200V104H208V96Z" fill="#FBF236"/>
<path d="M216 96H208V104H216V96Z" fill="#FBF236"/>
<path d="M224 96H216V104H224V96Z" fill="#FBF236"/>
<path d="M232 96H224V104H232V96Z" fill="#FBF236"/>
<path d="M240 96H232V104H240V96Z" fill="#FBF236"/>
<path d="M248 96H240V104H248V96Z" fill="#FBF236"/>
<path d="M256 96H248V104H256V96Z" fill="black"/>
<path d="M8 104H0V112H8V104Z" fill="black"/>
<path d="M16 104H8V112H16V104Z" fill="#FBF236"/>
<path d="M24 104H16V112H24V104Z" fill="#FBF236"/>
<path d="M32 104H24V112H32V104Z" fill="#FBF236"/>
<path d="M40 104H32V112H40V104Z" fill="#FBF236"/>
<path d="M48 104H40V112H48V104Z" fill="#FBF236"/>
<path d="M56 104H48V112H56V104Z" fill="#FBF236"/>
<path d="M64 104H56V112H64V104Z" fill="#FBF236"/>
<path d="M72 104H64V112H72V104Z" fill="#FBF236"/>
<path d="M80 104H72V112H80V104Z" fill="#FBF236"/>
<path d="M88 104H80V112H88V104Z" fill="#FBF236"/>
<path d="M96 104H88V112H96V104Z" fill="#FBF236"/>
<path d="M104 104H96V112H104V104Z" fill="#FBF236"/>
<path d="M112 104H104V112H112V104Z" fill="#FBF236"/>
<path d="M120 104H112V112H120V104Z" fill="#FBF236"/>
<path d="M128 104H120V112H128V104Z" fill="#FBF236"/>
<path d="M136 104H128V112H136V104Z" fill="#FBF236"/>
<path d="M144 104H136V112H144V104Z" fill="#FBF236"/>
<path d="M152 104H144V112H152V104Z" fill="#FBF236"/>
<path d="M160 104H152V112H160V104Z" fill="#FBF236"/>
<path d="M168 104H160V112H168V104Z" fill="#FBF236"/>
<path d="M176 104H168V112H176V104Z" fill="#FBF236"/>
<path d="M184 104H176V112H184V104Z" fill="#FBF236"/>
<path d="M192 104H184V112H192V104Z" fill="#FBF236"/>
<path d="M200 104H192V112H200V104Z" fill="#FBF236"/>
<path d="M208 104H200V112H208V104Z" fill="#FBF236"/>
<path d="M216 104H208V112H216V104Z" fill="#FBF236"/>
<path d="M224 104H216V112H224V104Z" fill="#FBF236"/>
<path d="M232 104H224V112H232V104Z" fill="#FBF236"/>
<path d="M240 104H232V112H240V104Z" fill="#FBF236"/>
<path d="M248 104H240V112H248V104Z" fill="#FBF236"/>
<path d="M256 104H248V112H256V104Z" fill="black"/>
<path d="M16 112H8V120H16V112Z" fill="black"/>
<path d="M24 112H16V120H24V112Z" fill="black"/>
<path d="M32 112H24V120H32V112Z" fill="black"/>
<path d="M40 112H32V120H40V112Z" fill="black"/>
<path d="M48 112H40V120H48V112Z" fill="black"/>
<path d="M56 112H48V120H56V112Z" fill="black"/>
<path d="M64 112H56V120H64V112Z" fill="black"/>
<path d="M72 112H64V120H72V112Z" fill="black"/>
<path d="M80 112H72V120H80V112Z" fill="black"/>
<path d="M88 112H80V120H88V112Z" fill="black"/>
<path d="M96 112H88V120H96V112Z" fill="black"/>
<path d="M104 112H96V120H104V112Z" fill="black"/>
<path d="M112 112H104V120H112V112Z" fill="black"/>
<path d="M120 112H112V120H120V112Z" fill="black"/>
<path d="M128 112H120V120H128V112Z" fill="black"/>
<path d="M136 112H128V120H136V112Z" fill="black"/>
<path d="M144 112H136V120H144V112Z" fill="black"/>
<path d="M152 112H144V120H152V112Z" fill="black"/>
<path d="M160 112H152V120H160V112Z" fill="black"/>
<path d="M168 112H160V120H168V112Z" fill="black"/>
<path d="M176 112H168V120H176V112Z" fill="black"/>
<path d="M184 112H176V120H184V112Z" fill="black"/>
<path d="M192 112H184V120H192V112Z" fill="black"/>
<path d="M200 112H192V120H200V112Z" fill="black"/>
<path d="M208 112H200V120H208V112Z" fill="black"/>
<path d="M216 112H208V120H216V112Z" fill="black"/>
<path d="M224 112H216V120H224V112Z" fill="black"/>
<path d="M232 112H224V120H232V112Z" fill="black"/>
<path d="M240 112H232V120H240V112Z" fill="black"/>
<path d="M248 112H240V120H248V112Z" fill="black"/>
</svg>
